<svg id="White" xmlns="http://www.w3.org/2000/svg" width="32.579" height="32.579" viewBox="0 0 32.579 32.579">
  <path id="White-2" data-name="White" d="M30.785,0H1.794A1.794,1.794,0,0,0,0,1.794v28.99a1.794,1.794,0,0,0,1.794,1.794H17.406V19.957H13.159V15.05h4.248V11.425c0-4.211,2.576-6.494,6.323-6.494a34.837,34.837,0,0,1,3.8.2V9.521H24.913c-2.038,0-2.441.964-2.441,2.392V15.05h4.87l-.635,4.919H22.484V32.579h8.3a1.794,1.794,0,0,0,1.794-1.794V1.794A1.794,1.794,0,0,0,30.785,0Z" transform="translate(0 0)" fill="#fff"/>
</svg>
