<svg id="Artwork_13" data-name="Artwork 13" xmlns="http://www.w3.org/2000/svg" width="35.266" height="35.251" viewBox="0 0 35.266 35.251">
  <g id="Grupo_52" data-name="Grupo 52" transform="translate(0 0)">
    <path id="Caminho_11" data-name="Caminho 11" d="M17.626,3.177c4.709,0,5.262.021,7.123.1a9.619,9.619,0,0,1,3.275.609,5.465,5.465,0,0,1,2.029,1.315,5.465,5.465,0,0,1,1.315,2.029,9.8,9.8,0,0,1,.609,3.275c.084,1.861.1,2.414.1,7.123s-.021,5.262-.1,7.123a9.619,9.619,0,0,1-.609,3.275,5.836,5.836,0,0,1-3.345,3.345,9.8,9.8,0,0,1-3.275.609c-1.861.084-2.414.1-7.123.1s-5.262-.021-7.123-.1a9.619,9.619,0,0,1-3.275-.609A5.465,5.465,0,0,1,5.2,30.06,5.465,5.465,0,0,1,3.883,28.03a9.8,9.8,0,0,1-.609-3.275c-.084-1.861-.1-2.414-.1-7.123s.021-5.262.1-7.123a9.619,9.619,0,0,1,.609-3.275A5.465,5.465,0,0,1,5.2,5.206,5.465,5.465,0,0,1,7.228,3.89,9.8,9.8,0,0,1,10.5,3.282c1.861-.084,2.414-.1,7.123-.1m0-3.177c-4.786,0-5.388.021-7.27.1A12.882,12.882,0,0,0,6.08.924,8.641,8.641,0,0,0,2.96,2.96,8.641,8.641,0,0,0,.924,6.08,12.928,12.928,0,0,0,.1,10.363C.021,12.245,0,12.84,0,17.626s.021,5.388.1,7.27a12.882,12.882,0,0,0,.819,4.275A8.641,8.641,0,0,0,2.96,32.292a8.642,8.642,0,0,0,3.121,2.036,12.928,12.928,0,0,0,4.282.819c1.882.084,2.477.1,7.27.1s5.388-.021,7.27-.1a12.966,12.966,0,0,0,4.282-.819,9.012,9.012,0,0,0,5.157-5.157,12.928,12.928,0,0,0,.819-4.282c.084-1.882.1-2.477.1-7.27s-.021-5.388-.1-7.27a12.966,12.966,0,0,0-.819-4.282,8.641,8.641,0,0,0-2.036-3.121A8.641,8.641,0,0,0,29.185.91,13.509,13.509,0,0,0,24.9.1C23.021.021,22.412,0,17.626,0Z" transform="translate(0 0)" fill="#fff"/>
    <path id="Caminho_12" data-name="Caminho 12" d="M131.554,122.6a9.054,9.054,0,1,0,9.054,9.047A9.054,9.054,0,0,0,131.554,122.6Zm0,14.925a5.878,5.878,0,1,1,5.878-5.878A5.878,5.878,0,0,1,131.554,137.525Z" transform="translate(-113.929 -114.022)" fill="#fff"/>
    <circle id="Elipse_2" data-name="Elipse 2" cx="2.113" cy="2.113" r="2.113" transform="translate(24.044 8.214) rotate(-45)" fill="#fff"/>
  </g>
</svg>
