<svg xmlns="http://www.w3.org/2000/svg" width="183.958" height="50.318" viewBox="0 0 183.958 50.318">
  <defs>
    <style>
      .cls-1, .cls-6 {
        fill: #0060af;
      }

      .cls-1, .cls-4, .cls-5 {
        fill-rule: evenodd;
      }

      .cls-2, .cls-4 {
        fill: #1a1818;
      }

      .cls-3, .cls-5 {
        fill: #fff;
      }

      .cls-6 {
        font-size: 36px;
        font-family: HelveticaNeue-Bold, Helvetica Neue;
        font-weight: 700;
      }
    </style>
  </defs>
  <g id="Grupo_50" data-name="Grupo 50" transform="translate(-179.23 -18)">
    <g id="Grupo_48" data-name="Grupo 48" transform="translate(179.23 18)">
      <g id="Grupo_1" data-name="Grupo 1">
        <path id="Caminho_1" data-name="Caminho 1" class="cls-1" d="M171.423,130.814a15.871,15.871,0,0,1,2.5-1.469,10.7,10.7,0,0,1,2.151,2.834,7.628,7.628,0,0,1,1.51-.662,19.046,19.046,0,0,1-.269-3.5,12.077,12.077,0,0,1,2.565-.765,12.782,12.782,0,0,1,1.386,3.289,8.367,8.367,0,0,1,1.613-.145,20.145,20.145,0,0,1,.766-3.62,10.787,10.787,0,0,1,2.958.021,26.426,26.426,0,0,1,.434,3.579,10.9,10.9,0,0,1,1.655.124,15.356,15.356,0,0,1,1.469-3.207,12.65,12.65,0,0,1,2.772.724,17.32,17.32,0,0,1-.393,3.455,15.632,15.632,0,0,1,1.593.7,15.51,15.51,0,0,1,2.441-2.648,13.9,13.9,0,0,1,2.338,1.386,14.217,14.217,0,0,1-1.3,3.248,9.811,9.811,0,0,1,1.22.993,25.169,25.169,0,0,1,3.1-1.862,15.861,15.861,0,0,1,1.965,1.945,13.968,13.968,0,0,1-2.172,2.813,10.392,10.392,0,0,1,.993,1.179,23.336,23.336,0,0,1,3.434-1.034,9.019,9.019,0,0,1,1.386,2.379,16.549,16.549,0,0,1-2.731,2.172,9.278,9.278,0,0,1,.6,1.593,29.093,29.093,0,0,1,3.6-.29,18.669,18.669,0,0,1,.641,2.9,18.51,18.51,0,0,1-3.248,1.158,10.906,10.906,0,0,1,.124,1.655,31.078,31.078,0,0,1,3.641.786,28.692,28.692,0,0,1-.083,3.021,29.864,29.864,0,0,1-3.558.434,8.411,8.411,0,0,1-.207,1.613,31.032,31.032,0,0,1,3.289,1.427,18.323,18.323,0,0,1-.828,2.814,33.825,33.825,0,0,1-3.538-.476,11.962,11.962,0,0,1-.579,1.51,19.267,19.267,0,0,1,2.607,2.4,23.241,23.241,0,0,1-1.427,2.42,21.742,21.742,0,0,1-3.269-1.365,10.326,10.326,0,0,1-1.034,1.2,18.767,18.767,0,0,1,1.986,3,11.359,11.359,0,0,1-1.945,1.924,20.158,20.158,0,0,1-2.876-2.089,8.4,8.4,0,0,1-1.241.931,21.908,21.908,0,0,1,.973,3.538,20.945,20.945,0,0,1-2.358,1.179,19.045,19.045,0,0,1-2.276-2.648,11.424,11.424,0,0,1-1.407.517,27.829,27.829,0,0,1,.1,3.476,18.017,18.017,0,0,1-2.441.7,31.857,31.857,0,0,1-1.469-3.227c-.538.124-1.013.227-1.551.31a20.864,20.864,0,0,1-.662,3.351,15.526,15.526,0,0,1-2.772,0,18.978,18.978,0,0,1-.642-3.434,12.427,12.427,0,0,1-1.531-.227,20.916,20.916,0,0,1-1.551,3.124,16.332,16.332,0,0,1-2.979-.848,27.4,27.4,0,0,1,.414-3.351,12.163,12.163,0,0,1-1.386-.6,28.054,28.054,0,0,1-2.379,2.5,25.637,25.637,0,0,1-2.483-1.3,23.113,23.113,0,0,1,1.221-3.351,6.053,6.053,0,0,1-1.055-.869c-1.035.621-2.131,1.283-3.165,1.841a17.73,17.73,0,0,1-1.986-1.945,31.04,31.04,0,0,1,2.131-2.855,12.675,12.675,0,0,1-.973-1.262,32.071,32.071,0,0,1-3.372,1.117,22.428,22.428,0,0,1-1.427-2.462,22.014,22.014,0,0,1,2.751-2.255,12.853,12.853,0,0,1-.579-1.427,28.117,28.117,0,0,1-3.476.269,17.551,17.551,0,0,1-.786-2.731,17.219,17.219,0,0,1,3.207-1.489,7.678,7.678,0,0,1-.166-1.51,15.9,15.9,0,0,1-3.475-.683,21.635,21.635,0,0,1,0-2.834,18.237,18.237,0,0,1,3.558-.517,6.493,6.493,0,0,1,.165-1.551,21.94,21.94,0,0,1-3.186-1.613,21.892,21.892,0,0,1,.745-2.627,18.955,18.955,0,0,1,3.538.517,6.124,6.124,0,0,1,.621-1.51,22.345,22.345,0,0,1-2.751-2.276,17.285,17.285,0,0,1,1.572-2.627,19.076,19.076,0,0,1,3.248,1.427,9.139,9.139,0,0,1,.993-1.22,29.571,29.571,0,0,1-2.027-2.938,15.035,15.035,0,0,1,2.068-2.069,22.491,22.491,0,0,1,2.793,2.151,8.408,8.408,0,0,1,1.386-.993A23.677,23.677,0,0,1,171.423,130.814Z" transform="translate(-159.664 -126.467)"/>
        <path id="Caminho_2" data-name="Caminho 2" class="cls-2" d="M184.635,176.432c-.47,0-.937-.021-1.4-.063l-.144-.013-.04-.139a18.721,18.721,0,0,1-.631-3.3l-.133-.015c-.354-.04-.718-.081-1.074-.156a21.844,21.844,0,0,1-1.5,2.983l-.076.128-.146-.027a16.437,16.437,0,0,1-3.015-.859l-.148-.056.012-.157a28.233,28.233,0,0,1,.382-3.2c-.364-.137-.7-.282-1.089-.473a27.824,27.824,0,0,1-2.29,2.4l-.1.095-.127-.058a25.667,25.667,0,0,1-2.5-1.314l-.142-.084.047-.159a23.933,23.933,0,0,1,1.156-3.219,5.979,5.979,0,0,1-.823-.674l-.048.029c-.986.592-2.006,1.2-2.981,1.73l-.131.071-.293-.261a16.136,16.136,0,0,1-1.826-1.805l-.1-.118.081-.13a27.851,27.851,0,0,1,1.93-2.606l.109-.136-.173-.209a8.917,8.917,0,0,1-.614-.794,31.96,31.96,0,0,1-3.233,1.063l-.147.038-.083-.128a22.44,22.44,0,0,1-1.44-2.484l-.067-.137.109-.107a21.7,21.7,0,0,1,2.633-2.174c-.172-.374-.328-.757-.456-1.123a28.275,28.275,0,0,1-3.328.247l-.15,0-.052-.14a17.7,17.7,0,0,1-.8-2.764l-.029-.147.129-.076a17.487,17.487,0,0,1,3.071-1.447,7.93,7.93,0,0,1-.131-1.171,16.891,16.891,0,0,1-3.325-.678l-.143-.041-.01-.148a21.787,21.787,0,0,1,0-2.862l.01-.156.152-.036a18.838,18.838,0,0,1,3.4-.515v0a6.58,6.58,0,0,1,.119-1.218A22.6,22.6,0,0,1,160,146.075l-.13-.078.032-.148a21.982,21.982,0,0,1,.752-2.653l.053-.153.162.011a20.108,20.108,0,0,1,3.37.471,6.506,6.506,0,0,1,.5-1.189,22.243,22.243,0,0,1-2.625-2.189l-.11-.108.069-.138a17.267,17.267,0,0,1,1.591-2.658l.091-.124.146.048a19.008,19.008,0,0,1,3.115,1.351,9.288,9.288,0,0,1,.782-.957,29.346,29.346,0,0,1-1.932-2.816l-.075-.125.09-.115a15.3,15.3,0,0,1,2.1-2.1l.118-.1.132.082a21.26,21.26,0,0,1,2.638,2.016l.041.035a8.656,8.656,0,0,1,1.117-.8,23.873,23.873,0,0,1-1.153-3.125l-.041-.14.117-.088a15.725,15.725,0,0,1,2.537-1.489l.13-.064.107.1a10.875,10.875,0,0,1,2.091,2.7,7.735,7.735,0,0,1,1.189-.52,18.943,18.943,0,0,1-.243-3.354l0-.139.128-.053a12.237,12.237,0,0,1,2.611-.778l.136-.023.076.115a12.172,12.172,0,0,1,1.35,3.151l.006.018a8.526,8.526,0,0,1,1.283-.122,20.038,20.038,0,0,1,.748-3.471l.039-.12.124-.022a8.57,8.57,0,0,1,2.466-.029c.184.017.364.034.544.046l.16.012.032.157a25.651,25.651,0,0,1,.425,3.411,11.389,11.389,0,0,1,1.314.1,15.2,15.2,0,0,1,1.432-3.083l.071-.115.134.016a12.819,12.819,0,0,1,2.817.734l.144.05,0,.153a17.706,17.706,0,0,1-.359,3.314c.376.14.689.291,1.018.45l.259.124a15.957,15.957,0,0,1,2.371-2.539l.1-.091.125.056a14.1,14.1,0,0,1,2.372,1.406l.122.086-.039.143a14.531,14.531,0,0,1-1.232,3.131,9.924,9.924,0,0,1,.97.783,24.542,24.542,0,0,1,2.987-1.781l.123-.059.1.087a16.049,16.049,0,0,1,1.991,1.97l.095.112-.071.128a13.507,13.507,0,0,1-2.068,2.71,10.378,10.378,0,0,1,.781.924,23.2,23.2,0,0,1,3.313-.986l.125-.027.082.1a9.253,9.253,0,0,1,1.419,2.432l.056.131-.1.1a16.642,16.642,0,0,1-2.612,2.1,9.538,9.538,0,0,1,.485,1.277,30.217,30.217,0,0,1,3.439-.263l.16-.005.049.152a18.99,18.99,0,0,1,.649,2.929l.024.16-.148.065a19.762,19.762,0,0,1-3.1,1.126,11.091,11.091,0,0,1,.1,1.313,31.5,31.5,0,0,1,3.488.763l.148.041.006.154a29.028,29.028,0,0,1-.083,3.042l-.011.166-.164.029a30.976,30.976,0,0,1-3.392.426,8.553,8.553,0,0,1-.163,1.277,32.139,32.139,0,0,1,3.136,1.373l.148.073-.034.161a18.543,18.543,0,0,1-.837,2.846l-.056.146-.156-.011a33.429,33.429,0,0,1-3.38-.447,11.769,11.769,0,0,1-.462,1.213l.344.285a15.432,15.432,0,0,1,2.166,2.039l.085.1-.059.121a23.591,23.591,0,0,1-1.441,2.444l-.09.137-.155-.053a22.254,22.254,0,0,1-3.146-1.3l-.157.2a8.227,8.227,0,0,1-.648.757,18.04,18.04,0,0,1,1.893,2.883l.058.119-.081.1a11.59,11.59,0,0,1-1.983,1.962l-.114.088-.123-.074a20.159,20.159,0,0,1-2.772-2c-.085.069-.164.135-.24.2a6.035,6.035,0,0,1-.737.554,22.254,22.254,0,0,1,.92,3.4l.027.145-.126.076a21.146,21.146,0,0,1-2.376,1.189l-.131.059-.108-.1a19.335,19.335,0,0,1-2.2-2.541l-.018.008c-.354.146-.719.3-1.089.407a27.624,27.624,0,0,1,.089,3.326l0,.14-.13.05a18.327,18.327,0,0,1-2.47.712l-.16.037-.076-.145a32.1,32.1,0,0,1-1.412-3.078c-.441.1-.822.18-1.229.247a21.3,21.3,0,0,1-.65,3.225l-.039.141-.146.013C185.576,176.411,185.1,176.432,184.635,176.432Zm-1.215-.472a15.3,15.3,0,0,0,2.444,0,20.525,20.525,0,0,0,.616-3.176l.018-.162.16-.025c.511-.079.967-.176,1.536-.307l.179-.041.066.171a31.067,31.067,0,0,0,1.384,3.06,17.834,17.834,0,0,0,2.122-.608,27.583,27.583,0,0,0-.107-3.309l-.016-.178.174-.045a9.589,9.589,0,0,0,1.207-.437l.328-.135.1.136a18.9,18.9,0,0,0,2.148,2.519,20.845,20.845,0,0,0,2.077-1.033,21.728,21.728,0,0,0-.935-3.359l-.065-.174.165-.086a4.667,4.667,0,0,0,.824-.6c.118-.1.243-.2.384-.314l.137-.109.132.114a19.978,19.978,0,0,0,2.722,1.993,11.242,11.242,0,0,0,1.711-1.693,19.428,19.428,0,0,0-1.9-2.846l-.119-.156.146-.13a6.437,6.437,0,0,0,.74-.837c.087-.11.176-.223.27-.338l.111-.135.154.083a20.666,20.666,0,0,0,3.081,1.3,23.239,23.239,0,0,0,1.264-2.137,15.959,15.959,0,0,0-2.021-1.876c-.158-.13-.315-.261-.471-.392l-.126-.106.071-.148a11.836,11.836,0,0,0,.57-1.485l.057-.174.18.032c.932.166,2.145.367,3.359.462a17.967,17.967,0,0,0,.727-2.474,30.148,30.148,0,0,0-3.118-1.345l-.178-.063.042-.184a8.156,8.156,0,0,0,.2-1.574l.007-.193.193-.01a28.989,28.989,0,0,0,3.369-.4c.05-.781.105-1.718.077-2.678a31.014,31.014,0,0,0-3.467-.739l-.179-.028v-.181a10.76,10.76,0,0,0-.122-1.623l-.03-.194.192-.044a18.048,18.048,0,0,0,3.062-1.08,18.573,18.573,0,0,0-.561-2.551,27.8,27.8,0,0,0-3.413.282l-.19.03-.048-.186a9.035,9.035,0,0,0-.587-1.557l-.078-.168.156-.1a16.4,16.4,0,0,0,2.593-2.043,8.753,8.753,0,0,0-1.216-2.1,23.1,23.1,0,0,0-3.277,1l-.154.059L202.2,139a10.241,10.241,0,0,0-.973-1.155l-.137-.144.135-.145a14.111,14.111,0,0,0,2.07-2.645,15.606,15.606,0,0,0-1.739-1.719,25.922,25.922,0,0,0-2.954,1.787l-.144.1-.123-.123a9.707,9.707,0,0,0-1.2-.971l-.152-.111.092-.164a13.886,13.886,0,0,0,1.244-3.057,13.624,13.624,0,0,0-2.057-1.223,14.934,14.934,0,0,0-2.3,2.519l-.1.146-.161-.075c-.15-.07-.289-.137-.423-.2a10.14,10.14,0,0,0-1.15-.494l-.178-.061.04-.184a17.1,17.1,0,0,0,.385-3.261,12.307,12.307,0,0,0-2.448-.646,15.2,15.2,0,0,0-1.378,3.047l-.057.169-.176-.028a10.753,10.753,0,0,0-1.622-.122h-.2l-.013-.2a26.719,26.719,0,0,0-.4-3.394l-.392-.035a8.475,8.475,0,0,0-2.228,0,20.317,20.317,0,0,0-.718,3.461l-.026.19-.192-.007a8.122,8.122,0,0,0-1.572.142l-.179.029-.117-.364a12.317,12.317,0,0,0-1.225-2.93,11.862,11.862,0,0,0-2.254.675,18.774,18.774,0,0,0,.268,3.319l.03.182-.177.054a7.392,7.392,0,0,0-1.468.644l-.188.106-.1-.19a10.446,10.446,0,0,0-2-2.68,15.472,15.472,0,0,0-2.219,1.3,23.41,23.41,0,0,0,1.168,3.1l.08.175-.166.1a8.215,8.215,0,0,0-1.351.968l-.138.124-.322-.275a21.588,21.588,0,0,0-2.456-1.9,14.9,14.9,0,0,0-1.831,1.823,29.362,29.362,0,0,0,1.937,2.791l.112.144-.125.132a8.931,8.931,0,0,0-.97,1.192l-.108.162-.17-.093a18.768,18.768,0,0,0-3.066-1.363,16.747,16.747,0,0,0-1.393,2.334,22.142,22.142,0,0,0,2.615,2.146l.153.108-.089.165a5.8,5.8,0,0,0-.6,1.455l-.047.216-.213-.056a18.189,18.189,0,0,0-3.337-.5,21.46,21.46,0,0,0-.653,2.3,21.419,21.419,0,0,0,3.025,1.521l.179.071-.054.185a5.4,5.4,0,0,0-.15,1.3l-.015.4-.2.007a17.891,17.891,0,0,0-3.364.476,21.459,21.459,0,0,0,0,2.5,15.347,15.347,0,0,0,3.285.634l.2.011v.2a7.48,7.48,0,0,0,.162,1.469l.036.182-.176.059a16.869,16.869,0,0,0-3.037,1.4,17.375,17.375,0,0,0,.695,2.409,27.476,27.476,0,0,0,3.3-.264l.175-.025.056.167a12.561,12.561,0,0,0,.57,1.4l.077.162-.146.1a21.851,21.851,0,0,0-2.615,2.127,21.909,21.909,0,0,0,1.264,2.174,33.221,33.221,0,0,0,3.2-1.071l.165-.063.092.151a7.485,7.485,0,0,0,.672.892c.1.118.195.233.285.349l.1.132-.32.4A29.064,29.064,0,0,0,166,167.68a16.675,16.675,0,0,0,1.683,1.642l.071.063c.927-.506,1.9-1.087,2.834-1.65l.338-.2.117.124a5.823,5.823,0,0,0,1.02.839l.149.1-.077.163a22.268,22.268,0,0,0-1.161,3.163c.784.457,1.487.826,2.192,1.151a27.988,27.988,0,0,0,2.258-2.389l.107-.127.149.074a11.842,11.842,0,0,0,1.363.59l.171.062-.036.179a26.116,26.116,0,0,0-.4,3.168,15.823,15.823,0,0,0,2.649.754,20.451,20.451,0,0,0,1.461-2.964l.067-.175.182.045a9.118,9.118,0,0,0,1.2.188l.471.055.017.168A18.822,18.822,0,0,0,183.42,175.961Z" transform="translate(-159.312 -126.114)"/>
      </g>
      <g id="Grupo_2" data-name="Grupo 2" transform="translate(5.765 5.909)">
        <ellipse id="Elipse_1" data-name="Elipse 1" class="cls-3" cx="19.301" cy="19.063" rx="19.301" ry="19.063" transform="translate(0.211 0.212)"/>
        <path id="Caminho_3" data-name="Caminho 3" class="cls-2" d="M194.171,180.393a19.276,19.276,0,1,1,19.513-19.274A19.416,19.416,0,0,1,194.171,180.393Zm0-38.126a18.853,18.853,0,1,0,19.09,18.852A18.993,18.993,0,0,0,194.171,142.267Z" transform="translate(-174.659 -141.844)"/>
      </g>
      <g id="Grupo_35" data-name="Grupo 35" transform="translate(6.835 6.024)">
        <g id="Grupo_3" data-name="Grupo 3" transform="translate(0 13.144)">
          <rect id="Retângulo_2" data-name="Retângulo 2" class="cls-2" width="0.225" height="11.877"/>
        </g>
        <g id="Grupo_4" data-name="Grupo 4" transform="translate(1.185 10.4)">
          <rect id="Retângulo_3" data-name="Retângulo 3" class="cls-2" width="0.225" height="17.441"/>
        </g>
        <g id="Grupo_5" data-name="Grupo 5" transform="translate(2.369 8.53)">
          <rect id="Retângulo_4" data-name="Retângulo 4" class="cls-2" width="0.225" height="21.437"/>
        </g>
        <g id="Grupo_6" data-name="Grupo 6" transform="translate(3.554 6.972)">
          <rect id="Retângulo_5" data-name="Retângulo 5" class="cls-2" width="0.225" height="24.426"/>
        </g>
        <g id="Grupo_7" data-name="Grupo 7" transform="translate(4.738 5.725)">
          <rect id="Retângulo_6" data-name="Retângulo 6" class="cls-2" width="0.225" height="26.793"/>
        </g>
        <g id="Grupo_8" data-name="Grupo 8" transform="translate(5.923 4.603)">
          <rect id="Retângulo_7" data-name="Retângulo 7" class="cls-2" width="0.225" height="29.075"/>
        </g>
        <g id="Grupo_9" data-name="Grupo 9" transform="translate(7.108 3.668)">
          <rect id="Retângulo_8" data-name="Retângulo 8" class="cls-2" width="0.225" height="30.976"/>
        </g>
        <g id="Grupo_10" data-name="Grupo 10" transform="translate(8.292 2.92)">
          <rect id="Retângulo_9" data-name="Retângulo 9" class="cls-2" width="0.225" height="32.574"/>
        </g>
        <g id="Grupo_11" data-name="Grupo 11" transform="translate(9.477 2.297)">
          <rect id="Retângulo_10" data-name="Retângulo 10" class="cls-2" width="0.225" height="33.854"/>
        </g>
        <g id="Grupo_12" data-name="Grupo 12" transform="translate(10.662 1.736)">
          <rect id="Retângulo_11" data-name="Retângulo 11" class="cls-2" width="0.225" height="34.956"/>
        </g>
        <g id="Grupo_13" data-name="Grupo 13" transform="translate(11.846 1.255)">
          <rect id="Retângulo_12" data-name="Retângulo 12" class="cls-2" width="0.225" height="35.824"/>
        </g>
        <g id="Grupo_14" data-name="Grupo 14" transform="translate(13.031 0.965)">
          <rect id="Retângulo_13" data-name="Retângulo 13" class="cls-2" width="0.225" height="36.461"/>
        </g>
        <g id="Grupo_15" data-name="Grupo 15" transform="translate(14.215 0.579)">
          <rect id="Retângulo_14" data-name="Retângulo 14" class="cls-2" width="0.225" height="37.195"/>
        </g>
        <g id="Grupo_16" data-name="Grupo 16" transform="translate(15.4 0.579)">
          <rect id="Retângulo_15" data-name="Retângulo 15" class="cls-2" width="0.225" height="37.389"/>
        </g>
        <g id="Grupo_17" data-name="Grupo 17" transform="translate(16.585 0.29)">
          <rect id="Retângulo_16" data-name="Retângulo 16" class="cls-2" width="0.225" height="37.872"/>
        </g>
        <g id="Grupo_18" data-name="Grupo 18" transform="translate(17.769 0)">
          <rect id="Retângulo_17" data-name="Retângulo 17" class="cls-2" width="0.225" height="38.316"/>
        </g>
        <g id="Grupo_19" data-name="Grupo 19" transform="translate(18.954 0.096)">
          <rect id="Retângulo_18" data-name="Retângulo 18" class="cls-2" width="0.225" height="38.181"/>
        </g>
        <g id="Grupo_20" data-name="Grupo 20" transform="translate(20.138 0.241)">
          <rect id="Retângulo_19" data-name="Retângulo 19" class="cls-2" width="0.225" height="37.881"/>
        </g>
        <g id="Grupo_21" data-name="Grupo 21" transform="translate(21.323 0.455)">
          <rect id="Retângulo_20" data-name="Retângulo 20" class="cls-2" width="0.225" height="37.475"/>
        </g>
        <g id="Grupo_22" data-name="Grupo 22" transform="translate(22.508 0.704)">
          <rect id="Retângulo_21" data-name="Retângulo 21" class="cls-2" width="0.225" height="37.07"/>
        </g>
        <g id="Grupo_23" data-name="Grupo 23" transform="translate(23.692 1.016)">
          <rect id="Retângulo_22" data-name="Retângulo 22" class="cls-2" width="0.225" height="36.41"/>
        </g>
        <g id="Grupo_24" data-name="Grupo 24" transform="translate(24.877 1.453)">
          <rect id="Retângulo_23" data-name="Retângulo 23" class="cls-2" width="0.225" height="35.664"/>
        </g>
        <g id="Grupo_25" data-name="Grupo 25" transform="translate(26.062 1.827)">
          <rect id="Retângulo_24" data-name="Retângulo 24" class="cls-2" width="0.225" height="34.556"/>
        </g>
        <g id="Grupo_26" data-name="Grupo 26" transform="translate(27.246 2.389)">
          <rect id="Retângulo_25" data-name="Retângulo 25" class="cls-2" width="0.225" height="33.569"/>
        </g>
        <g id="Grupo_27" data-name="Grupo 27" transform="translate(28.431 3.013)">
          <rect id="Retângulo_26" data-name="Retângulo 26" class="cls-2" width="0.225" height="32.288"/>
        </g>
        <g id="Grupo_28" data-name="Grupo 28" transform="translate(29.615 3.761)">
          <rect id="Retângulo_27" data-name="Retângulo 27" class="cls-2" width="0.225" height="30.767"/>
        </g>
        <g id="Grupo_29" data-name="Grupo 29" transform="translate(30.8 4.759)">
          <rect id="Retângulo_28" data-name="Retângulo 28" class="cls-2" width="0.225" height="28.88"/>
        </g>
        <g id="Grupo_30" data-name="Grupo 30" transform="translate(31.985 5.882)">
          <rect id="Retângulo_29" data-name="Retângulo 29" class="cls-2" width="0.225" height="26.521"/>
        </g>
        <g id="Grupo_31" data-name="Grupo 31" transform="translate(33.169 7.129)">
          <rect id="Retângulo_30" data-name="Retângulo 30" class="cls-2" width="0.225" height="24.075"/>
        </g>
        <g id="Grupo_32" data-name="Grupo 32" transform="translate(34.354 8.688)">
          <rect id="Retângulo_31" data-name="Retângulo 31" class="cls-2" width="0.225" height="20.931"/>
        </g>
        <g id="Grupo_33" data-name="Grupo 33" transform="translate(35.539 10.684)">
          <rect id="Retângulo_32" data-name="Retângulo 32" class="cls-2" width="0.225" height="16.926"/>
        </g>
        <g id="Grupo_34" data-name="Grupo 34" transform="translate(36.785 13.739)">
          <rect id="Retângulo_33" data-name="Retângulo 33" class="cls-2" width="0.225" height="10.724"/>
        </g>
      </g>
      <g id="Grupo_47" data-name="Grupo 47" transform="translate(11.511 11.916)">
        <g id="Grupo_36" data-name="Grupo 36" transform="translate(2.689)">
          <path id="Caminho_4" data-name="Caminho 4" class="cls-4" d="M197.113,160.266l.652,1.249c3.663-.984,9.6-2.051,14.137-.413a9.879,9.879,0,0,1,5.87,7.71c.428,3.762-2.541,6.936-3.811,10.4l2.592,1.95c3.3-3.994,6.509-8.939,7.852-14.491.556-2.3.179-4.647-2.82-6.5-3.74-2.313-8.113-2.337-12.307-2.337C205.461,157.836,199.912,159.487,197.113,160.266Z" transform="translate(-197.113 -157.836)"/>
        </g>
        <g id="Grupo_37" data-name="Grupo 37" transform="translate(0 3.054)">
          <path id="Caminho_5" data-name="Caminho 5" class="cls-5" d="M190.932,168.8a27.925,27.925,0,0,1,11.21-2.275c2.847.027,6.614.966,8.272,2.461,1.982,1.785,3.985,4.018,2.666,9.244a12.139,12.139,0,0,1-4.535,6.5c1.017,2.818,2.181,5.59,3.049,8.453a57.353,57.353,0,0,0-13.8-4.549c-.254-1.022-.521-2-.837-2.975a1.458,1.458,0,0,0-.993-.884c-.96-.353-2.447-.282-3.344-.829-.632-.385-.694-1-.925-1.817.938-1.466-.051-1.858-.076-2.787a3.336,3.336,0,0,0,.268-1.3,1.4,1.4,0,0,0-.649-.836c-.228-.062-.7-.037-.723-.367-.041-.523.874-4.592,1.255-7.069A3.712,3.712,0,0,1,190.932,168.8Z" transform="translate(-190.305 -166.317)"/>
          <path id="Caminho_6" data-name="Caminho 6" class="cls-2" d="M211.587,193.242l-.437-.215A56.234,56.234,0,0,0,197.4,188.5l-.13-.027-.032-.128c-.282-1.136-.547-2.077-.833-2.961a1.223,1.223,0,0,0-.865-.751,7.2,7.2,0,0,0-1.35-.285,5.566,5.566,0,0,1-2.031-.562,2.238,2.238,0,0,1-.92-1.574c-.03-.117-.062-.24-.1-.366l-.026-.092.051-.08a1.509,1.509,0,0,0,.149-1.775,2.188,2.188,0,0,1-.259-.892v-.027l.006-.027c.033-.139.079-.279.126-.417a1.674,1.674,0,0,0,.139-.8,1.165,1.165,0,0,0-.53-.678c-.038-.008-.081-.014-.126-.021-.24-.036-.686-.1-.719-.525a25.361,25.361,0,0,1,.542-3.215c.245-1.257.522-2.677.7-3.791a3.675,3.675,0,0,1-.795-.942l-.125-.208.223-.1a28.23,28.23,0,0,1,11.3-2.292c2.754.026,6.637.916,8.412,2.515,2.109,1.9,4.056,4.2,2.729,9.453-.613,2.431-1.959,4.387-4.49,6.518.323.893.666,1.793,1,2.666.7,1.84,1.424,3.743,2,5.659Zm-13.968-5.133a58.748,58.748,0,0,1,13.279,4.326c-.55-1.746-1.211-3.483-1.851-5.167-.35-.92-.711-1.871-1.051-2.812l-.05-.139.114-.095c2.565-2.134,3.858-3.986,4.465-6.391,1.269-5.03-.59-7.222-2.6-9.036-1.635-1.473-5.419-2.381-8.133-2.406a27.832,27.832,0,0,0-10.894,2.16,3.4,3.4,0,0,0,.593.649l.16.146-.017.112c-.175,1.139-.464,2.616-.718,3.92-.273,1.4-.555,2.846-.535,3.1.006.074.131.106.36.14a1.863,1.863,0,0,1,.207.039l.067.031a1.6,1.6,0,0,1,.735.971,2,2,0,0,1-.155,1.007c-.039.117-.079.234-.109.352a1.889,1.889,0,0,0,.219.7,1.881,1.881,0,0,1-.127,2.1c.027.1.052.192.076.284.158.6.272,1.041.731,1.32a5.3,5.3,0,0,0,1.874.5,7.512,7.512,0,0,1,1.433.306,1.683,1.683,0,0,1,1.121,1.017C197.088,186.109,197.346,187.021,197.619,188.109Z" transform="translate(-189.954 -165.966)"/>
        </g>
        <g id="Grupo_38" data-name="Grupo 38" transform="translate(0.308 3.706)">
          <path id="Caminho_7" data-name="Caminho 7" class="cls-2" d="M199.988,173.4a.769.769,0,0,1-.492-.178.626.626,0,0,1-.339.14,1.15,1.15,0,0,1-.843-.387,1.2,1.2,0,0,1-.61.058,1.409,1.409,0,0,1-.748-.329.761.761,0,0,1-.348.1,1.654,1.654,0,0,1-1.163-.476.944.944,0,0,1-.59.031,1.39,1.39,0,0,1-.775-.58.851.851,0,0,1-.414.032,2.017,2.017,0,0,1-1.166-.8c-.592.14-1.18-.73-1.583-1.324l-.144-.212.236-.1a28.405,28.405,0,0,1,4.985-1.635l.147-.034.08.129a11.3,11.3,0,0,0,4.946,4.637l.335.164-.485.318A2.019,2.019,0,0,1,199.988,173.4Zm-.517-.832.18.216c.26.312.518.222,1.005-.1a11.785,11.785,0,0,1-4.714-4.5,27.751,27.751,0,0,0-4.529,1.477c.305.437.791,1.07,1.049.912l.169-.1.115.163a1.758,1.758,0,0,0,.987.761.376.376,0,0,0,.3-.062l.2-.149.115.219a1.038,1.038,0,0,0,.616.548.508.508,0,0,0,.414-.059l.159-.1.12.146a1.251,1.251,0,0,0,.927.449.265.265,0,0,0,.211-.093l.175-.276.18.273a.886.886,0,0,0,.613.327.64.64,0,0,0,.447-.061l.15-.13.139.141c.341.347.538.385.621.377.045,0,.115-.023.2-.141Z" transform="translate(-190.774 -167.702)"/>
        </g>
        <g id="Grupo_39" data-name="Grupo 39" transform="translate(2.002 4.408)">
          <rect id="Retângulo_34" data-name="Retângulo 34" class="cls-2" width="4.429" height="0.422" transform="translate(0 2.189) rotate(-29.615)"/>
        </g>
        <g id="Grupo_40" data-name="Grupo 40" transform="translate(3.568 5.218)">
          <rect id="Retângulo_35" data-name="Retângulo 35" class="cls-2" width="3.537" height="0.423" transform="matrix(0.807, -0.59, 0.59, 0.807, 0, 2.088)"/>
        </g>
        <g id="Grupo_41" data-name="Grupo 41" transform="translate(4.799 5.98)">
          <rect id="Retângulo_36" data-name="Retângulo 36" class="cls-2" width="2.914" height="0.422" transform="translate(0 1.959) rotate(-42.254)"/>
        </g>
        <g id="Grupo_42" data-name="Grupo 42" transform="translate(6.284 6.769)">
          <rect id="Retângulo_37" data-name="Retângulo 37" class="cls-2" width="2.036" height="0.422" transform="translate(0 1.52) rotate(-48.309)"/>
        </g>
        <g id="Grupo_43" data-name="Grupo 43" transform="translate(7.688 7.533)">
          <rect id="Retângulo_38" data-name="Retângulo 38" class="cls-2" width="1.336" height="0.422" transform="translate(0 1.082) rotate(-54.115)"/>
        </g>
        <g id="Grupo_44" data-name="Grupo 44" transform="translate(8.842 7.985)">
          <rect id="Retângulo_39" data-name="Retângulo 39" class="cls-2" width="0.935" height="0.422" transform="matrix(0.52, -0.854, 0.854, 0.52, 0, 0.799)"/>
        </g>
        <g id="Grupo_45" data-name="Grupo 45" transform="translate(1.358 6.69)">
          <path id="Caminho_8" data-name="Caminho 8" class="cls-4" d="M193.862,175.646c2.639,1.614,6.332,2.784,9.5,2.149a16.493,16.493,0,0,1-5.078,5.914,12.128,12.128,0,0,0,4.707,4.415c.026.867.193,1.808.218,2.675a35.133,35.133,0,0,1,8.619,3.212c.483,1.517,1.087,3.082,1.57,4.6a46.663,46.663,0,0,0-6.3-4.579c-2.016-1.259-4.665-2.014-6.21-3.375a10.3,10.3,0,0,1-3.654-6.089c-.363-1.993.739-3.062,1.2-4.24.441-1.129.4-1.924-1.068-2.428a16.9,16.9,0,0,0-3.8-.427C193.619,176.823,193.811,176.3,193.862,175.646Z" transform="translate(-193.568 -175.646)"/>
        </g>
        <g id="Grupo_46" data-name="Grupo 46" transform="translate(10.335 6.769)">
          <path id="Caminho_9" data-name="Caminho 9" class="cls-5" d="M229.359,178.338l-10.075-1.92c-.648-.051-1.313.723-1.254,1.662a1.251,1.251,0,0,0,1.427,1.3c.507-.079.9-.6,1.262-1.027Z" transform="translate(-217.816 -176.205)"/>
          <path id="Caminho_10" data-name="Caminho 10" class="cls-2" d="M218.907,179.257a1.366,1.366,0,0,1-.864-.3,1.651,1.651,0,0,1-.574-1.213,1.955,1.955,0,0,1,.549-1.505,1.2,1.2,0,0,1,.932-.38l12.275,2.337-10.767.032a2.419,2.419,0,0,1-1.319,1.013A1.526,1.526,0,0,1,218.907,179.257Zm-.047-2.983a.82.82,0,0,0-.546.264,1.529,1.529,0,0,0-.423,1.178,1.22,1.22,0,0,0,.417.91.966.966,0,0,0,.766.195c.393-.062.746-.488,1.058-.864l.138-.165,6.522-.012-7.9-1.5Z" transform="translate(-217.465 -175.854)"/>
        </g>
      </g>
    </g>
    <text id="SENAG" class="cls-6" transform="translate(237.189 55.648)"><tspan x="0" y="0">SENAG</tspan></text>
  </g>
</svg>
