<svg id="Grupo_458" data-name="Grupo 458" xmlns="http://www.w3.org/2000/svg" width="58.171" height="61.019" viewBox="0 0 58.171 61.019">
  <path id="Caminho_503" data-name="Caminho 503" d="M42.686,138.062V94.711a4.567,4.567,0,0,1,4.565-4.565H90.6Z" transform="translate(-42.686 -82.517)" fill="#2b9348" fill-rule="evenodd"/>
  <path id="Caminho_504" data-name="Caminho 504" d="M42.686,138.971v-.91L90.6,90.146h.91a4.568,4.568,0,0,1,4.566,4.565v.911L48.161,143.536h-.91A4.567,4.567,0,0,1,42.686,138.971Z" transform="translate(-42.686 -82.517)" fill="#ffdb0f" fill-rule="evenodd"/>
  <path id="Caminho_505" data-name="Caminho 505" d="M88.666,381.556l21.22-21.219,21.219,21.219Z" transform="translate(-83.191 -320.536)" fill="#4374b9" fill-rule="evenodd"/>
  <path id="Caminho_506" data-name="Caminho 506" d="M285.7,338.645,264.156,317.1l5.476-5.475,21.544,21.544v.91a4.568,4.568,0,0,1-4.566,4.565Z" transform="translate(-237.786 -277.626)" fill="#fff" fill-rule="evenodd"/>
  <path id="Caminho_507" data-name="Caminho 507" d="M334.087,178.576l-21.221-21.22,21.221-21.219Z" transform="translate(-280.696 -123.032)" fill="#d3d2d2" fill-rule="evenodd"/>
  <path id="Caminho_508" data-name="Caminho 508" d="M108.26,141.243h-7.152v2.48h4.232a4.47,4.47,0,1,1-1.31-4.814l1.977-1.934a7.231,7.231,0,1,0,2.253,4.268Z" transform="translate(-87.784 -122.083)" fill="#f3f3f4"/>
  <g id="Grupo_2114" data-name="Grupo 2114" transform="translate(29.451 0)">
    <path id="Caminho_509" data-name="Caminho 509" d="M304.4,71.76h-.023a.787.787,0,0,1-.779-.75c-1.161-8.419-3.369-11.583-5.259-14.717-3.14-5.2-8.309-10.959-8.309-16.676,0-7.2,5.891-13.542,14.338-13.542h.044c8.446,0,14.339,6.342,14.339,13.542,0,5.716-5.171,11.475-8.31,16.676-1.89,3.134-4.1,6.3-5.259,14.717A.787.787,0,0,1,304.4,71.76Z" transform="translate(-290.029 -26.076)" fill="#d42a23" fill-rule="evenodd"/>
    <ellipse id="Elipse_1" data-name="Elipse 1" cx="4.944" cy="4.944" rx="4.944" ry="4.944" transform="translate(9.416 8.771)" fill="#7a1f19"/>
  </g>
</svg>
